<svg xmlns="http://www.w3.org/2000/svg" xmlns:xlink="http://www.w3.org/1999/xlink" version="1.1" x="0px" y="0px" viewBox="0 0 18 18" enable-background="new 0 0 18 18" xml:space="preserve" width="16" height="16">
<path fill="#FFFFFF" d="M13.5 16c0-0.8 0-1.6 0-2.4c0.8 0 1.6 0 2.3 0c0-0.8 0-1.6 0-2.3c-3.4 0-6.8 0-10.1 0c0 0 0 0 0 0 c1.8-1.8 3.7-3.6 5.5-5.4c0 1.5 0 3 0 4.5c0.8 0 1.5 0 2.3 0c0-0.1 0-4.6 0-6.8C13.5 3.5 16 1 16 1c-0.4-0.3-0.7-0.7-1-1 c0 0-2.5 2.5-2.7 2.5c-2.2 0-6.7 0-6.7 0c0 0.8 0 1.6 0 2.4c1.5 0 3 0 4.4 0c-1.8 1.8-3.5 3.6-5.3 5.4c0-3.4 0-6.8 0-10.2 c-0.8 0-1.6 0-2.3 0c0 0.8 0 1.6 0 2.4c-0.8 0-1.6 0-2.4 0c0 0.8 0 1.6 0 2.4c0.8 0 1.6 0 2.4 0c0 2.9 0 5.8 0 8.8 c2.9 0 5.9 0 8.8 0c0 0.8 0 1.6 0 2.4C11.9 16 12.7 16 13.5 16z"/>
</svg>